<?xml version="1.0" encoding="UTF-8"?>
<svg width="50px" height="50px" version="1.1" viewBox="0 0 26 26" xmlns="http://www.w3.org/2000/svg" xmlns:cc="http://creativecommons.org/ns#" xmlns:dc="http://purl.org/dc/elements/1.1/" xmlns:rdf="http://www.w3.org/1999/02/22-rdf-syntax-ns#"><metadata><rdf:RDF><cc:Work rdf:about=""><dc:format>image/svg+xml</dc:format><dc:type rdf:resource="http://purl.org/dc/dcmitype/StillImage"/><dc:title/></cc:Work></rdf:RDF></metadata><g fill="#c4dcff"><path d="m21.125 0h-16.25c-2.6914 0-4.875 2.1836-4.875 4.875v16.25c0 2.6914 2.1836 4.875 4.875 4.875h16.25c2.6914 0 4.875-2.1836 4.875-4.875v-16.25c0-2.6914-2.1836-4.875-4.875-4.875zm-13.086 22.07h-4.0391l-0.023437-12.094h4.0391zm-2.1211-13.676h-0.023438c-1.3203 0-2.1719-0.91016-2.1719-2.043 0-1.1602 0.87891-2.0391 2.2227-2.0391s2.168 0.87891 2.1953 2.0391c0 1.1328-0.85547 2.043-2.2227 2.043zm16.125 13.676h-4.0742v-6.5703c0-1.5898-0.42188-2.6719-1.8438-2.6719-1.0859 0-1.6719 0.73047-1.9531 1.4375-0.10547 0.25391-0.13281 0.60156-0.13281 0.95703v6.8477h-4.0938l-0.023438-12.094h4.0938l0.023438 1.707c0.52344-0.80859 1.3945-1.9531 3.4805-1.9531 2.5859 0 4.5195 1.6875 4.5195 5.3164v7.0234z" fill="#c4dcff"/></g></svg>
