<?xml version="1.0" encoding="UTF-8"?>
<!-- Created with Inkscape (http://www.inkscape.org/) -->
<svg width="100" height="100" version="1.1" viewBox="0 0 26.458 26.458" xmlns="http://www.w3.org/2000/svg" xmlns:cc="http://creativecommons.org/ns#" xmlns:dc="http://purl.org/dc/elements/1.1/" xmlns:rdf="http://www.w3.org/1999/02/22-rdf-syntax-ns#"><metadata><rdf:RDF><cc:Work rdf:about=""><dc:format>image/svg+xml</dc:format><dc:type rdf:resource="http://purl.org/dc/dcmitype/StillImage"/><dc:title/></cc:Work></rdf:RDF></metadata><g transform="translate(0 -270.54)"><path transform="matrix(.26458 0 0 .26458 0 270.54)" d="m16.875 3c-1.0388 0-1.875 0.83627-1.875 1.875v90.25c0 1.0388 0.83625 1.875 1.875 1.875h66.25c1.0388 0 1.875-0.83624 1.875-1.875v-65.125h-25.242c-0.97383 0-1.7578-0.78398-1.7578-1.7578v-25.242h-41.125z" fill="none" stroke="#c4dcff" stroke-width="6"/><rect x="17.456" y="271.33" width="5.028" height="4.5102" rx=".3537" ry=".49927" fill="none"/><g fill="#c4dcff"><path d="m16.14 270.54 7.1437 7.1438h-7.1437z"/><ellipse cx="8.9958" cy="275.57" rx="2.3813" ry="2.3813"/><path d="m6.6229 278.48c-0.29774 0-0.53743 0.3609-0.53743 0.80925v2.3658h1.0666v-1.8521h0.25632v1.8521h3.175v-1.8521h0.25632v1.8521h1.0666v-2.3658c0-0.44835-0.2397-0.80925-0.53744-0.80925z"/></g><g fill="none" stroke="#c4dcff" stroke-linecap="round" stroke-width="1.0582"><path d="m6.3573 284.56 13.73 0.0121h0.01344"/><path d="m6.3573 287.2 13.73 0.0121h0.01344"/><path d="m6.3575 289.86 13.73 0.0121h0.01344"/><path d="m6.3572 292.5 13.73 0.0121h0.01344"/></g></g></svg>
