<?xml version="1.0" encoding="UTF-8" standalone="no"?>
<!-- Created with Inkscape (http://www.inkscape.org/) -->

<svg
   xmlns:dc="http://purl.org/dc/elements/1.1/"
   xmlns:cc="http://creativecommons.org/ns#"
   xmlns:rdf="http://www.w3.org/1999/02/22-rdf-syntax-ns#"
   xmlns:svg="http://www.w3.org/2000/svg"
   xmlns="http://www.w3.org/2000/svg"
   xmlns:sodipodi="http://sodipodi.sourceforge.net/DTD/sodipodi-0.dtd"
   xmlns:inkscape="http://www.inkscape.org/namespaces/inkscape"
   width="100"
   height="100"
   version="1.1"
   viewBox="0 0 26.458 26.458"
   id="svg28"
   sodipodi:docname="resume.svg"
   inkscape:version="0.92.3 (2405546, 2018-03-11)">
  <defs
     id="defs32" />
  <sodipodi:namedview
     pagecolor="#ffffff"
     bordercolor="#666666"
     borderopacity="1"
     objecttolerance="10"
     gridtolerance="10"
     guidetolerance="10"
     inkscape:pageopacity="0"
     inkscape:pageshadow="2"
     inkscape:window-width="2560"
     inkscape:window-height="1346"
     id="namedview30"
     showgrid="false"
     inkscape:zoom="2.36"
     inkscape:cx="50"
     inkscape:cy="50"
     inkscape:window-x="-11"
     inkscape:window-y="-11"
     inkscape:window-maximized="1"
     inkscape:current-layer="svg28" />
  <metadata
     id="metadata2">
    <rdf:RDF>
      <cc:Work
         rdf:about="">
        <dc:format>image/svg+xml</dc:format>
        <dc:type
           rdf:resource="http://purl.org/dc/dcmitype/StillImage" />
        <dc:title />
      </cc:Work>
    </rdf:RDF>
  </metadata>
  <g
     transform="translate(0 -270.54)"
     id="g26"
     style="fill:none;fill-opacity:1">
    <path
       transform="matrix(.26458 0 0 .26458 0 270.54)"
       d="m16.875 3c-1.0388 0-1.875 0.83627-1.875 1.875v90.25c0 1.0388 0.83625 1.875 1.875 1.875h66.25c1.0388 0 1.875-0.83624 1.875-1.875v-65.125h-25.242c-0.97383 0-1.7578-0.78398-1.7578-1.7578v-25.242h-41.125z"
       fill="none"
       stroke="#00a1bb"
       stroke-width="6"
       id="path4"
       style="fill:none;fill-opacity:1" />
    <rect
       x="17.456"
       y="271.33"
       width="5.028"
       height="4.5102"
       rx=".3537"
       ry=".49927"
       fill="none"
       id="rect6"
       style="fill:none;fill-opacity:1" />
    <g
       fill="#00a1bb"
       id="g14"
       style="fill:none;fill-opacity:1">
      <path
         d="m16.14 270.54 7.1437 7.1438h-7.1437z"
         id="path8"
         style="fill:none;fill-opacity:1" />
      <ellipse
         cx="8.9958"
         cy="275.57"
         rx="2.3813"
         ry="2.3813"
         id="ellipse10"
         style="fill:none;fill-opacity:1" />
      <path
         d="m6.6229 278.48c-0.29774 0-0.53743 0.3609-0.53743 0.80925v2.3658h1.0666v-1.8521h0.25632v1.8521h3.175v-1.8521h0.25632v1.8521h1.0666v-2.3658c0-0.44835-0.2397-0.80925-0.53744-0.80925z"
         id="path12"
         style="fill:none;fill-opacity:1" />
    </g>
    <g
       fill="none"
       stroke="#00a1bb"
       stroke-linecap="round"
       stroke-width="1.0582"
       id="g24"
       style="fill:none;fill-opacity:1">
      <path
         d="m6.3573 284.56 13.73 0.0121h0.01344"
         id="path16"
         style="fill:none;fill-opacity:1" />
      <path
         d="m6.3573 287.2 13.73 0.0121h0.01344"
         id="path18"
         style="fill:none;fill-opacity:1" />
      <path
         d="m6.3575 289.86 13.73 0.0121h0.01344"
         id="path20"
         style="fill:none;fill-opacity:1" />
      <path
         d="m6.3572 292.5 13.73 0.0121h0.01344"
         id="path22"
         style="fill:none;fill-opacity:1" />
    </g>
  </g>
</svg>
